<svg height="480pt" viewBox="-48 0 480 480" width="480pt" xmlns="http://www.w3.org/2000/svg"><path d="m248 384h-112l8-32h96zm0 0" fill="#b47e67"/><path d="m128 288-40 192h32l40-192" fill="#a36d56"/><path d="m224 288 40 192h32l-40-192" fill="#a36d56"/><path d="m0 256h384v32h-384zm0 0" fill="#bd3d47"/><path d="m0 272h384v16h-384zm0 0" fill="#df6a66"/><path d="m128 32v-32h128v32" fill="#4a98c5"/><path d="m128 32v-16h128v16" fill="#5dbbd3"/><path d="m32 32h320v224h-320zm0 0" fill="#f19850"/><path d="m64 64h256v160h-256zm0 0" fill="#fff"/><path d="m264 136c0 8.835938-7.164062 16-16 16s-16-7.164062-16-16 7.164062-16 16-16 16 7.164062 16 16zm0 0" fill="#f19850"/><path d="m320 200-24-24-40 48h64" fill="#5da351"/><path d="m149.335938 200 42.664062-32 56 56h-88" fill="#74c865"/><path d="m64 224 64-72 64 72" fill="#5da351"/></svg>